#usda 1.0
(
    defaultPrim = "Root"
    upAxis = "Z"
)

def Xform "Root"
{
    def Xform "Geo_M1_SideWall" (
        apiSchemas = ["PhysicsRigidBodyAPI", "PhysxRigidBodyAPI", "PhysxForceAPI", "PhysicsMassAPI"]
        instanceable = true
        kind = "component"
    )
    {
        point3f physics:centerOfMass = (-inf, -inf, -inf)
        bool physics:kinematicEnabled = 0
        float physics:mass = 50
        bool physics:rigidBodyEnabled = 1
        uniform token physxForce:mode = "force"
        token ui:displayGroup = "Material Graphs"
        token ui:displayName = "Geo_M1_SideWall"
        int ui:order = 1024
        float3 xformOp:rotateXYZ = (0, -0, 0)
        float3 xformOp:scale = (1, 1, 1)
        double3 xformOp:translate = (0, 0, 0)
        uniform token[] xformOpOrder = ["xformOp:translate", "xformOp:rotateXYZ", "xformOp:scale"]

        def Xform "Geo_M1_SideWall"
        {
            def Mesh "Section0" (
                apiSchemas = ["PhysicsCollisionAPI", "PhysicsMeshCollisionAPI", "MaterialBindingAPI", "PhysxConvexHullCollisionAPI"]
            )
            {
                float3[] extent = [(0, 0, -3.8883105e-14), (610, 15.009277, 300)]
                int[] faceVertexCounts = [3, 3, 3, 3, 3, 3]
                int[] faceVertexIndices = [0, 1, 2, 2, 1, 3, 4, 5, 6, 6, 5, 7, 8, 9, 10, 10, 9, 11]
                rel material:binding = </Root/Geo_M1_SideWall/Looks/M_Wall_PlasterGray>
                normal3f[] normals = [(0, 1, 0), (0, 1, 0), (0, 1, 0), (0, 1, 0), (-0.8582677, 0.511811, 0), (-0.8582677, 0.511811, 0), (-0.8582677, 0.511811, 0), (-0.8582677, 0.511811, 0), (0.8582677, 0.511811, 0), (0.8582677, 0.511811, 0), (0.8582677, 0.511811, 0), (0.8582677, 0.511811, 0)] (
                    interpolation = "vertex"
                )
                uniform token physics:approximation = "convexHull"
                bool physics:collisionEnabled = 1
                point3f[] points = [(9.02832, 15.009277, -3.8883105e-14), (9.02832, 15.009277, 300), (600.9717, 15.009277, -3.8883105e-14), (600.9717, 15.009277, 300), (9.02832, 15.009277, 300), (9.02832, 15.009277, -3.8883105e-14), (0, 0, 300), (0, 0, -3.796405e-14), (600.9717, 15.009277, -3.8883105e-14), (600.9717, 15.009277, 300), (610, 0, -3.796405e-14), (610, 0, 300)]
                texCoord2f[] primvars:st = [(0.48486328, -0.7988281), (0.48486328, -0.18847656), (-0.7182617, -0.7988281), (-0.7182617, -0.18847656), (0.48486328, -0.18847656), (0.48486328, -0.7988281), (0.5029297, -0.18847656), (0.5029297, -0.7988281), (-0.7182617, -0.7988281), (-0.7182617, -0.18847656), (-0.7368164, -0.7988281), (-0.7368164, -0.18847656)] (
                    interpolation = "vertex"
                )
                texCoord2f[] primvars:st1 = [(0.9296875, 0.5444336), (0.9296875, 0.9921875), (0.021652222, 0.5444336), (0.021652222, 0.9921875), (0.9296875, 0.9921875), (0.9296875, 0.5444336), (0.94384766, 0.9921875), (0.94384766, 0.5444336), (0.021652222, 0.5444336), (0.021652222, 0.9921875), (0.0078125, 0.5444336), (0.0078125, 0.9921875)] (
                    interpolation = "vertex"
                )
                texCoord2f[] primvars:vc = [(1, 1), (1, 1), (1, 1), (1, 1), (1, 1), (1, 1), (1, 1), (1, 1), (1, 1), (1, 1), (1, 1), (1, 1)] (
                    interpolation = "vertex"
                )
                texCoord2f[] primvars:vc1 = [(1, 1), (1, 1), (1, 1), (1, 1), (1, 1), (1, 1), (1, 1), (1, 1), (1, 1), (1, 1), (1, 1), (1, 1)] (
                    interpolation = "vertex"
                )
                uniform token subdivisionScheme = "none"
                float3 xformOp:scale = (0.01, 0.01, 0.02)
                uniform token[] xformOpOrder = ["xformOp:scale"]
            }

            def Mesh "Section1" (
                apiSchemas = ["PhysicsCollisionAPI", "PhysicsMeshCollisionAPI", "MaterialBindingAPI", "PhysxConvexHullCollisionAPI"]
            )
            {
                float3[] extent = [(0, 0, -3.8883105e-14), (610, 15.009277, 300)]
                int[] faceVertexCounts = [3, 3, 3, 3, 3, 3]
                int[] faceVertexIndices = [0, 1, 2, 2, 1, 3, 4, 5, 6, 6, 5, 7, 8, 9, 10, 10, 9, 11]
                rel material:binding = </Root/Geo_M1_SideWall/Looks/M_Wall_Plaster>
                normal3f[] normals = [(0, -1, 0), (0, -1, 0), (0, -1, 0), (0, -1, 0), (0, 0, -1), (0, 0, -1), (0, 0, -1), (0, 0, -1), (0, 0, 1), (0, 0, 1), (0, 0, 1), (0, 0, 1)] (
                    interpolation = "vertex"
                )
                uniform token physics:approximation = "convexHull"
                bool physics:collisionEnabled = 1
                point3f[] points = [(610, 0, -3.796405e-14), (610, 0, 300), (0, 0, -3.796405e-14), (0, 0, 300), (9.02832, 15.009277, -3.8883105e-14), (600.9717, 15.009277, -3.8883105e-14), (0, 0, -3.796405e-14), (610, 0, -3.796405e-14), (600.9717, 15.009277, 300), (9.02832, 15.009277, 300), (610, 0, 300), (0, 0, 300)]
                texCoord2f[] primvars:st = [(1.8710938, -0.8027344), (1.8710938, -0.20117188), (0.6484375, -0.8027344), (0.6484375, -0.20117188), (1.578125, 0.091308594), (1.578125, -1.0957031), (1.6083984, 0.109375), (1.6083984, -1.1132812), (1.703125, -1.0957031), (1.703125, 0.091308594), (1.6738281, -1.1132812), (1.6738281, 0.109375)] (
                    interpolation = "vertex"
                )
                texCoord2f[] primvars:st1 = [(0.91845703, 0.075683594), (0.91845703, 0.5234375), (0.0078125, 0.075683594), (0.0078125, 0.5234375), (0.9609375, 0.978714), (0.9609375, 0.095214844), (0.98291016, 0.9921875), (0.98291016, 0.08154297), (0.90478516, 0.0546875), (0.02128601, 0.0546875), (0.91845703, 0.032714844), (0.0078125, 0.032714844)] (
                    interpolation = "vertex"
                )
                texCoord2f[] primvars:vc = [(1, 1), (1, 1), (1, 1), (1, 1), (1, 1), (1, 1), (1, 1), (1, 1), (1, 1), (1, 1), (1, 1), (1, 1)] (
                    interpolation = "vertex"
                )
                texCoord2f[] primvars:vc1 = [(1, 1), (1, 1), (1, 1), (1, 1), (1, 1), (1, 1), (1, 1), (1, 1), (1, 1), (1, 1), (1, 1), (1, 1)] (
                    interpolation = "vertex"
                )
                uniform token subdivisionScheme = "none"
                float3 xformOp:scale = (0.01, 0.01, 0.01)
                uniform token[] xformOpOrder = ["xformOp:scale"]
            }
        }

        def Scope "Looks"
        {
            def Material "M_Wall_PlasterGray"
            {
                token outputs:mdl:surface.connect = </Root/Geo_M1_SideWall/Looks/M_Wall_PlasterGray/M_Wall_PlasterGray.outputs:out>

                def Shader "M_Wall_PlasterGray"
                {
                    uniform token info:implementationSource = "sourceAsset"
                    uniform asset info:mdl:sourceAsset = @http://omniverse-content-production.s3-us-west-2.amazonaws.com/Assets/Isaac/4.0/Isaac/Environments/Hospital/Materials/M_Wall_PlasterGray.mdl@
                    uniform token info:mdl:sourceAsset:subIdentifier = "M_Wall_PlasterGray"
                    token outputs:out
                }
            }

            def Material "M_Wall_Plaster"
            {
                token outputs:mdl:surface.connect = </Root/Geo_M1_SideWall/Looks/M_Wall_Plaster/M_Wall_Plaster.outputs:out>

                def Shader "M_Wall_Plaster"
                {
                    uniform token info:implementationSource = "sourceAsset"
                    uniform asset info:mdl:sourceAsset = @http://omniverse-content-production.s3-us-west-2.amazonaws.com/Assets/Isaac/4.0/Isaac/Environments/Hospital/Materials/M_Wall_Plaster.mdl@
                    uniform token info:mdl:sourceAsset:subIdentifier = "M_Wall_Plaster"
                    token outputs:out
                }
            }
        }
    }
}

